<svg id="visual" viewBox="0 0 960 100" width="960" height="100" xmlns="http://www.w3.org/2000/svg" xmlns:xlink="http://www.w3.org/1999/xlink" version="1.1"><rect x="0" y="0" width="960" height="100" fill="#64748b"></rect><path d="M0 56L22.8 58.8C45.7 61.7 91.3 67.3 137 68.7C182.7 70 228.3 67 274 71.2C319.7 75.3 365.3 86.7 411.2 87.3C457 88 503 78 548.8 71.7C594.7 65.3 640.3 62.7 686 66.8C731.7 71 777.3 82 823 83.8C868.7 85.7 914.3 78.3 937.2 74.7L960 71L960 101L937.2 101C914.3 101 868.7 101 823 101C777.3 101 731.7 101 686 101C640.3 101 594.7 101 548.8 101C503 101 457 101 411.2 101C365.3 101 319.7 101 274 101C228.3 101 182.7 101 137 101C91.3 101 45.7 101 22.8 101L0 101Z" fill="#ffffff" stroke-linecap="round" stroke-linejoin="miter"></path></svg>