<svg id="visual" viewBox="0 0 960 100" width="960" height="100" xmlns="http://www.w3.org/2000/svg" xmlns:xlink="http://www.w3.org/1999/xlink" version="1.1"><rect x="0" y="0" width="960" height="100" fill="#ffffff"></rect><path d="M0 71L22.8 72C45.7 73 91.3 75 137 78.5C182.7 82 228.3 87 274 87.7C319.7 88.3 365.3 84.7 411.2 79.8C457 75 503 69 548.8 70.8C594.7 72.7 640.3 82.3 686 84C731.7 85.7 777.3 79.3 823 74.3C868.7 69.3 914.3 65.7 937.2 63.8L960 62L960 101L937.2 101C914.3 101 868.7 101 823 101C777.3 101 731.7 101 686 101C640.3 101 594.7 101 548.8 101C503 101 457 101 411.2 101C365.3 101 319.7 101 274 101C228.3 101 182.7 101 137 101C91.3 101 45.7 101 22.8 101L0 101Z" fill="#64748b" stroke-linecap="round" stroke-linejoin="miter"></path></svg>